<svg width="17" height="17" viewBox="0 0 17 17" fill="none" xmlns="http://www.w3.org/2000/svg">
<rect width="17" height="17" rx="4" fill="url(#paint0_linear_54_5)"/>
<path d="M7 10.6458C6.65 10.6458 6.35417 10.5351 6.1125 10.3135C5.87083 10.092 5.75 9.82083 5.75 9.5C5.75 9.17917 5.87083 8.90799 6.1125 8.68646C6.35417 8.46493 6.65 8.35417 7 8.35417C7.35 8.35417 7.64583 8.46493 7.8875 8.68646C8.12917 8.90799 8.25 9.17917 8.25 9.5C8.25 9.82083 8.12917 10.092 7.8875 10.3135C7.64583 10.5351 7.35 10.6458 7 10.6458ZM5 13.1667C4.725 13.1667 4.48958 13.0769 4.29375 12.8974C4.09792 12.7179 4 12.5021 4 12.25V5.83333C4 5.58125 4.09792 5.36545 4.29375 5.18594C4.48958 5.00642 4.725 4.91667 5 4.91667H5.5V4H6.5V4.91667H10.5V4H11.5V4.91667H12C12.275 4.91667 12.5104 5.00642 12.7063 5.18594C12.9021 5.36545 13 5.58125 13 5.83333V12.25C13 12.5021 12.9021 12.7179 12.7063 12.8974C12.5104 13.0769 12.275 13.1667 12 13.1667H5ZM5 12.25H12V7.66667H5V12.25ZM5 6.75H12V5.83333H5V6.75Z" fill="white"/>
<defs>
<linearGradient id="paint0_linear_54_5" x1="8.5" y1="0" x2="8.5" y2="17" gradientUnits="userSpaceOnUse">
<stop stop-color="#02A437"/>
<stop offset="1" stop-color="#098230"/>
</linearGradient>
</defs>
</svg>
