<svg width="18" height="17" viewBox="0 0 18 17" fill="none" xmlns="http://www.w3.org/2000/svg">
<rect width="18" height="17" rx="4" fill="url(#paint0_linear_54_2)"/>
<path d="M8.37433 14V12.6861C7.80749 12.5639 7.31818 12.3296 6.90642 11.9833C6.49465 11.637 6.19251 11.1481 6 10.5167L7.18717 10.0583C7.34759 10.5472 7.58556 10.919 7.90107 11.1736C8.21658 11.4282 8.63102 11.5556 9.14438 11.5556C9.58289 11.5556 9.95455 11.4613 10.2594 11.2729C10.5642 11.0845 10.7166 10.7917 10.7166 10.3944C10.7166 10.038 10.5989 9.75532 10.3636 9.54653C10.1283 9.33773 9.58289 9.10093 8.72727 8.83611C7.80749 8.56111 7.17647 8.23264 6.83422 7.85069C6.49198 7.46875 6.32086 7.00278 6.32086 6.45278C6.32086 5.79074 6.54545 5.27639 6.99465 4.90972C7.44385 4.54306 7.90374 4.33426 8.37433 4.28333V3H9.65775V4.28333C10.1925 4.36481 10.6337 4.55069 10.9813 4.84097C11.3289 5.13125 11.5829 5.48519 11.7433 5.90278L10.5561 6.39167C10.4278 6.06574 10.246 5.8213 10.0107 5.65833C9.7754 5.49537 9.45455 5.41389 9.04813 5.41389C8.57754 5.41389 8.21925 5.51319 7.97326 5.71181C7.72727 5.91042 7.60428 6.15741 7.60428 6.45278C7.60428 6.78889 7.76471 7.0537 8.08556 7.24722C8.40642 7.44074 8.96257 7.64444 9.75401 7.85833C10.492 8.06204 11.0508 8.38542 11.4305 8.82847C11.8102 9.27153 12 9.78333 12 10.3639C12 11.087 11.7754 11.637 11.3262 12.0139C10.877 12.3907 10.3209 12.625 9.65775 12.7167V14H8.37433Z" fill="white"/>
<defs>
<linearGradient id="paint0_linear_54_2" x1="9" y1="0" x2="9" y2="17" gradientUnits="userSpaceOnUse">
<stop stop-color="#02A437"/>
<stop offset="1" stop-color="#098230"/>
</linearGradient>
</defs>
</svg>
