<svg width="55" height="55" viewBox="0 0 55 55" fill="none" xmlns="http://www.w3.org/2000/svg">
<rect width="55" height="55" rx="10" fill="url(#paint0_linear_104_13)"/>
<path d="M40.7612 20.58L40.7782 20.5644L34.4655 14.7778L32.6667 16.4267L36.2473 19.7089C34.6521 20.2689 33.5152 21.6689 33.5152 23.3333C33.5152 25.48 35.4158 27.2222 37.7576 27.2222C38.3685 27.2222 38.9285 27.0978 39.4545 26.8956V38.1111C39.4545 38.9667 38.6909 39.6667 37.7576 39.6667C36.8242 39.6667 36.0606 38.9667 36.0606 38.1111V31.1111C36.0606 29.4 34.5333 28 32.6667 28H30.9697V17.1111C30.9697 15.4 29.4424 14 27.5758 14H17.3939C15.5273 14 14 15.4 14 17.1111V42H30.9697V30.3333H33.5152V38.1111C33.5152 40.2578 35.4158 42 37.7576 42C40.0994 42 42 40.2578 42 38.1111V23.3333C42 22.26 41.5249 21.28 40.7612 20.58ZM27.5758 24.8889H17.3939V17.1111H27.5758V24.8889ZM37.7576 24.8889C36.8242 24.8889 36.0606 24.1889 36.0606 23.3333C36.0606 22.4778 36.8242 21.7778 37.7576 21.7778C38.6909 21.7778 39.4545 22.4778 39.4545 23.3333C39.4545 24.1889 38.6909 24.8889 37.7576 24.8889Z" fill="white"/>
<defs>
<linearGradient id="paint0_linear_104_13" x1="27.5" y1="0" x2="27.5" y2="55" gradientUnits="userSpaceOnUse">
<stop stop-color="#02A437"/>
<stop offset="1" stop-color="#098230"/>
</linearGradient>
</defs>
</svg>
