<svg width="90" height="90" viewBox="0 0 90 90" fill="none" xmlns="http://www.w3.org/2000/svg">
<path d="M45 9C25.119 9 9 25.119 9 45C9 51.7536 10.897 58.0502 14.1328 63.4512L9.32227 81L27.2461 76.2949C32.4881 79.2752 38.5395 81 45 81C64.881 81 81 64.881 81 45C81 25.119 64.881 9 45 9ZM32.6777 28.207C33.2627 28.207 33.8638 28.2035 34.3828 28.2305C35.0248 28.2455 35.7236 28.2925 36.3926 29.7715C37.1876 31.5295 38.9186 35.9397 39.1406 36.3867C39.3626 36.8337 39.5199 37.3603 39.2109 37.9453C38.9169 38.5453 38.764 38.9085 38.332 39.4395C37.885 39.9555 37.3952 40.5963 36.9902 40.9863C36.5432 41.4333 36.0817 41.9235 36.5977 42.8145C37.1137 43.7055 38.9057 46.6264 41.5547 48.9844C44.9597 52.0264 47.8326 52.9612 48.7266 53.4082C49.6206 53.8552 50.1383 53.7855 50.6543 53.1855C51.1853 52.6005 52.8844 50.5932 53.4844 49.6992C54.0694 48.8052 54.6666 48.9599 55.4766 49.2539C56.2986 49.5479 60.6822 51.7073 61.5762 52.1543C62.4702 52.6013 63.0562 52.8225 63.2812 53.1855C63.5122 53.5605 63.5125 55.3457 62.7715 57.4277C62.0305 59.5067 58.3918 61.5172 56.7598 61.6582C55.1128 61.8112 53.5757 62.3985 46.0547 59.4375C36.9827 55.8645 31.2615 46.5727 30.8145 45.9727C30.3675 45.3877 27.1816 41.1417 27.1816 36.7617C27.1816 32.3667 29.486 30.2143 30.293 29.3203C31.115 28.4263 32.0777 28.207 32.6777 28.207Z" fill="#3F3F3F"/>
</svg>
